# This file uses centimeters as units for non-parametric coordinates.

mtllib vidrioEstufa.mtl
g default
v -10.650801 2.637826 -8.608639
v -10.660090 2.635979 -8.608639
v -10.669057 2.632935 -8.608639
v -10.677550 2.628746 -8.608639
v -10.685424 2.623485 -8.608639
v -10.692544 2.617241 -8.608639
v -10.698786 2.610121 -8.608639
v -10.704048 2.602248 -8.608639
v -10.708238 2.593755 -8.608639
v -10.711281 2.584788 -8.608639
v -10.713128 2.575500 -8.608639
v -10.713748 2.566050 -8.608639
v -10.641353 2.638446 -8.608639
v -10.713748 2.566050 -8.617504
v -10.713128 2.575500 -8.617504
v -10.711281 2.584788 -8.617504
v -10.708238 2.593755 -8.617504
v -10.704048 2.602248 -8.617504
v -10.698786 2.610121 -8.617504
v -10.692544 2.617241 -8.617504
v -10.685424 2.623485 -8.617504
v -10.677550 2.628746 -8.617504
v -10.669057 2.632935 -8.617504
v -10.660090 2.635979 -8.617504
v -10.650801 2.637826 -8.617504
v -10.641353 2.638446 -8.617504
v -8.486082 2.575500 -8.608639
v -8.487930 2.584788 -8.608639
v -8.490973 2.593755 -8.608639
v -8.495163 2.602248 -8.608639
v -8.500423 2.610121 -8.608639
v -8.506667 2.617241 -8.608639
v -8.513787 2.623485 -8.608639
v -8.521661 2.628746 -8.608639
v -8.530154 2.632935 -8.608639
v -8.539121 2.635979 -8.608639
v -8.548409 2.637826 -8.608639
v -8.557858 2.638446 -8.608639
v -8.485463 2.566050 -8.608639
v -8.485463 2.566050 -8.617504
v -8.557858 2.638446 -8.617504
v -8.548409 2.637826 -8.617504
v -8.539121 2.635979 -8.617504
v -8.530154 2.632935 -8.617504
v -8.521661 2.628746 -8.617504
v -8.513787 2.623485 -8.617504
v -8.506667 2.617241 -8.617504
v -8.500423 2.610121 -8.617504
v -8.495163 2.602248 -8.617504
v -8.490973 2.593755 -8.617504
v -8.487930 2.584788 -8.617504
v -8.486082 2.575500 -8.617504
v -10.713128 1.253345 -8.608639
v -10.711281 1.244057 -8.608639
v -10.708238 1.235090 -8.608639
v -10.704048 1.226596 -8.608639
v -10.698786 1.218723 -8.608639
v -10.692544 1.211603 -8.608639
v -10.685424 1.205359 -8.608639
v -10.677550 1.200098 -8.608639
v -10.669057 1.195910 -8.608639
v -10.660090 1.192866 -8.608639
v -10.650801 1.191018 -8.608639
v -10.641353 1.190399 -8.608639
v -10.713748 1.262794 -8.608639
v -10.650801 1.191018 -8.617504
v -10.660090 1.192866 -8.617504
v -10.669057 1.195910 -8.617504
v -10.677550 1.200098 -8.617504
v -10.685424 1.205359 -8.617504
v -10.692544 1.211603 -8.617504
v -10.698786 1.218723 -8.617504
v -10.704048 1.226596 -8.617504
v -10.708238 1.235090 -8.617504
v -10.711281 1.244057 -8.617504
v -10.713128 1.253345 -8.617504
v -10.713748 1.262794 -8.617504
v -10.641353 1.190399 -8.617504
v -8.548409 1.191018 -8.608639
v -8.539121 1.192866 -8.608639
v -8.530154 1.195910 -8.608639
v -8.521661 1.200098 -8.608639
v -8.513787 1.205359 -8.608639
v -8.506667 1.211603 -8.608639
v -8.500423 1.218723 -8.608639
v -8.495163 1.226596 -8.608639
v -8.490973 1.235090 -8.608639
v -8.487930 1.244057 -8.608639
v -8.486082 1.253345 -8.608639
v -8.485463 1.262794 -8.608639
v -8.557858 1.190399 -8.608639
v -8.486082 1.253345 -8.617504
v -8.487930 1.244057 -8.617504
v -8.490973 1.235090 -8.617504
v -8.495163 1.226596 -8.617504
v -8.500423 1.218723 -8.617504
v -8.506667 1.211603 -8.617504
v -8.513787 1.205359 -8.617504
v -8.521661 1.200098 -8.617504
v -8.530154 1.195910 -8.617504
v -8.539121 1.192866 -8.617504
v -8.548409 1.191018 -8.617504
v -8.557858 1.190399 -8.617504
v -8.485463 1.262794 -8.617504
vt 0.125001 0.237501
vt 0.874999 0.012499
vt 0.616878 1.000000
vt 0.375000 0.237501
vt 0.383122 0.499999
vt 0.616878 0.250000
vt 0.874999 0.237501
vt 0.383122 1.000000
vt 0.125001 0.012499
vt 0.625000 0.012499
vt 0.616878 0.750001
vt 0.625000 0.237501
vt 0.383122 0.250000
vt 0.375000 0.012499
vt 0.383122 0.000000
vt 0.616878 0.000000
vt 0.383122 0.750001
vt 0.375000 0.737501
vt 0.375000 0.512499
vt 0.616878 0.499999
vt 0.625000 0.512499
vt 0.625000 0.737501
vt 0.381903 0.250000
vt 0.380655 0.250000
vt 0.379356 0.250000
vt 0.377986 0.250000
vt 0.376536 0.250000
vt 0.375000 0.250000
vt 0.375000 0.248093
vt 0.375000 0.246095
vt 0.375000 0.244019
vt 0.375000 0.241882
vt 0.375000 0.239702
vt 0.125001 0.239702
vt -0.000000 -0.000000
vt 0.125001 0.241882
vt -0.000000 -0.000000
vt 0.125000 0.244019
vt -0.000000 -0.000000
vt 0.125000 0.246095
vt -0.000000 -0.000000
vt 0.125000 0.248093
vt -0.000000 -0.000000
vt 0.375000 0.500000
vt 0.125000 0.250000
vt 0.376536 0.500000
vt 0.377986 0.500000
vt 0.379356 0.499999
vt 0.380655 0.499999
vt 0.381903 0.499999
vt 0.625000 0.239702
vt 0.625000 0.241882
vt 0.625000 0.244019
vt 0.625000 0.246095
vt 0.625000 0.248093
vt 0.625000 0.250000
vt 0.623464 0.250000
vt 0.622014 0.250000
vt 0.620644 0.250000
vt 0.619345 0.250000
vt 0.618097 0.250000
vt 0.618098 0.499999
vt 0.619345 0.499999
vt 0.620644 0.499999
vt 0.622014 0.500000
vt 0.623464 0.500000
vt 0.875000 0.250000
vt 0.625000 0.500000
vt 0.875000 0.248093
vt -0.000000 -0.000000
vt 0.875000 0.246095
vt -0.000000 -0.000000
vt 0.875000 0.244019
vt -0.000000 -0.000000
vt 0.874999 0.241882
vt -0.000000 -0.000000
vt 0.874999 0.239702
vt -0.000000 -0.000000
vt 0.375000 0.010297
vt 0.375000 0.008118
vt 0.375000 0.005981
vt 0.375000 0.003905
vt 0.375000 0.001907
vt 0.375000 0.000000
vt 0.375000 1.000000
vt -0.000000 -0.000000
vt 0.376536 1.000000
vt -0.000000 -0.000000
vt 0.377986 1.000000
vt -0.000000 -0.000000
vt 0.379356 1.000000
vt -0.000000 -0.000000
vt 0.380655 1.000000
vt -0.000000 -0.000000
vt 0.381903 1.000000
vt 0.381903 0.750001
vt 0.380655 0.750001
vt 0.379356 0.750001
vt 0.377986 0.750000
vt 0.376536 0.750000
vt 0.125000 0.000000
vt 0.375000 0.750000
vt 0.125000 0.001907
vt -0.000000 -0.000000
vt 0.125000 0.003905
vt -0.000000 -0.000000
vt 0.125000 0.005981
vt -0.000000 -0.000000
vt 0.125001 0.008118
vt -0.000000 -0.000000
vt 0.125001 0.010297
vt -0.000000 -0.000000
vt -0.000000 -0.000000
vt 0.618098 1.000000
vt -0.000000 -0.000000
vt 0.619345 1.000000
vt -0.000000 -0.000000
vt 0.620644 1.000000
vt -0.000000 -0.000000
vt 0.622014 1.000000
vt -0.000000 -0.000000
vt 0.623464 1.000000
vt 0.625000 0.000000
vt 0.625000 1.000000
vt 0.625000 0.001907
vt 0.625000 0.003905
vt 0.625000 0.005981
vt 0.625000 0.008118
vt 0.625000 0.010298
vt 0.874999 0.010298
vt -0.000000 -0.000000
vt 0.874999 0.008118
vt -0.000000 -0.000000
vt 0.875000 0.005981
vt -0.000000 -0.000000
vt 0.875000 0.003905
vt -0.000000 -0.000000
vt 0.875000 0.001907
vt -0.000000 -0.000000
vt 0.625000 0.750000
vt 0.875000 0.000000
vt 0.623464 0.750000
vt 0.622014 0.750000
vt 0.620644 0.750001
vt 0.619345 0.750001
vt 0.618097 0.750001
vn -0.000296 1.000000 0.000000
vn -0.000296 1.000000 0.000000
vn 0.000296 1.000000 0.000000
vn 0.000296 1.000000 0.000000
vn -0.000296 -1.000000 0.000000
vn -0.000296 -1.000000 0.000000
vn 0.000296 -1.000000 0.000000
vn 0.000296 -1.000000 0.000000
vn 1.000000 -0.000471 0.000000
vn 1.000000 -0.000471 0.000000
vn 1.000000 0.000471 0.000000
vn 1.000000 0.000471 0.000000
vn -1.000000 -0.000472 0.000000
vn -1.000000 -0.000472 0.000000
vn -1.000000 0.000472 0.000000
vn -1.000000 0.000472 0.000000
vn -0.991446 0.130518 0.000000
vn -0.991446 0.130518 0.000000
vn -0.965927 0.258814 0.000000
vn -0.965927 0.258814 0.000000
vn -0.923859 0.382733 0.000000
vn -0.923859 0.382733 0.000000
vn -0.865985 0.500070 0.000000
vn -0.865985 0.500070 0.000000
vn -0.793394 0.608709 0.000000
vn -0.793394 0.608709 0.000000
vn -0.707162 0.707051 0.000000
vn -0.707162 0.707051 0.000000
vn -0.608765 0.793351 0.000000
vn -0.608765 0.793351 0.000000
vn -0.500003 0.866023 0.000000
vn -0.500003 0.866023 0.000000
vn -0.382710 0.923868 0.000000
vn -0.382710 0.923868 0.000000
vn -0.258802 0.965930 0.000000
vn -0.258802 0.965930 0.000000
vn -0.130515 0.991446 0.000000
vn -0.130515 0.991446 0.000000
vn 0.130515 0.991446 0.000000
vn 0.130515 0.991446 0.000000
vn 0.258813 0.965927 0.000000
vn 0.258813 0.965927 0.000000
vn 0.382710 0.923868 0.000000
vn 0.382710 0.923868 0.000000
vn 0.500003 0.866023 0.000000
vn 0.500003 0.866023 0.000000
vn 0.608765 0.793351 0.000000
vn 0.608765 0.793351 0.000000
vn 0.707118 0.707096 0.000000
vn 0.707118 0.707096 0.000000
vn 0.793372 0.608737 0.000000
vn 0.793372 0.608737 0.000000
vn 0.866004 0.500037 0.000000
vn 0.866004 0.500037 0.000000
vn 0.923875 0.382695 0.000000
vn 0.923875 0.382695 0.000000
vn 0.965927 0.258814 0.000000
vn 0.965927 0.258814 0.000000
vn 0.991446 0.130518 0.000000
vn 0.991446 0.130518 0.000000
vn -0.130523 -0.991445 0.000000
vn -0.130523 -0.991445 0.000000
vn -0.258802 -0.965930 0.000000
vn -0.258802 -0.965930 0.000000
vn -0.382682 -0.923880 0.000000
vn -0.382682 -0.923880 0.000000
vn -0.499987 -0.866033 0.000000
vn -0.499987 -0.866033 0.000000
vn -0.608751 -0.793362 0.000000
vn -0.608751 -0.793362 0.000000
vn -0.707151 -0.707062 0.000000
vn -0.707151 -0.707062 0.000000
vn -0.793386 -0.608720 0.000000
vn -0.793386 -0.608720 0.000000
vn -0.865996 -0.500051 0.000000
vn -0.865996 -0.500051 0.000000
vn -0.923866 -0.382717 0.000000
vn -0.923866 -0.382717 0.000000
vn -0.965927 -0.258814 0.000000
vn -0.965927 -0.258814 0.000000
vn -0.991446 -0.130518 0.000000
vn -0.991446 -0.130518 0.000000
vn 0.991446 -0.130518 0.000000
vn 0.991446 -0.130518 0.000000
vn 0.965927 -0.258814 0.000000
vn 0.965927 -0.258814 0.000000
vn 0.923881 -0.382679 0.000000
vn 0.923881 -0.382679 0.000000
vn 0.866015 -0.500018 0.000000
vn 0.866015 -0.500018 0.000000
vn 0.793364 -0.608748 0.000000
vn 0.793364 -0.608748 0.000000
vn 0.707107 -0.707107 0.000000
vn 0.707107 -0.707107 0.000000
vn 0.608751 -0.793362 0.000000
vn 0.608751 -0.793362 0.000000
vn 0.499987 -0.866033 0.000000
vn 0.499987 -0.866033 0.000000
vn 0.382682 -0.923880 0.000000
vn 0.382682 -0.923880 0.000000
vn 0.258813 -0.965927 0.000000
vn 0.258813 -0.965927 0.000000
vn 0.130523 -0.991445 0.000000
vn 0.130523 -0.991445 0.000000
vn 0.000000 0.000000 1.000000
vn 0.000000 0.000000 1.000000
vn 0.000000 0.000000 1.000000
vn 0.000000 0.000000 1.000000
vn 0.000000 0.000000 1.000000
vn 0.000000 0.000000 1.000000
vn 0.000000 0.000000 1.000000
vn 0.000000 0.000000 1.000000
vn 0.000000 0.000000 1.000000
vn 0.000000 0.000000 1.000000
vn 0.000000 0.000000 1.000000
vn 0.000000 0.000000 1.000000
vn 0.000000 0.000000 1.000000
vn 0.000000 0.000000 1.000000
vn 0.000000 0.000000 1.000000
vn 0.000000 0.000000 1.000000
vn 0.000000 0.000000 1.000000
vn 0.000000 0.000000 1.000000
vn 0.000000 0.000000 1.000000
vn 0.000000 0.000000 1.000000
vn 0.000000 0.000000 1.000000
vn 0.000000 0.000000 1.000000
vn 0.000000 0.000000 1.000000
vn 0.000000 0.000000 1.000000
vn 0.000000 0.000000 1.000000
vn 0.000000 0.000000 1.000000
vn 0.000000 0.000000 1.000000
vn 0.000000 0.000000 1.000000
vn 0.000000 0.000000 1.000000
vn 0.000000 0.000000 1.000000
vn 0.000000 0.000000 1.000000
vn 0.000000 0.000000 1.000000
vn 0.000000 0.000000 1.000000
vn 0.000000 0.000000 1.000000
vn 0.000000 0.000000 1.000000
vn 0.000000 0.000000 1.000000
vn 0.000000 0.000000 1.000000
vn 0.000000 0.000000 1.000000
vn 0.000000 0.000000 1.000000
vn 0.000000 0.000000 1.000000
vn 0.000000 0.000000 1.000000
vn 0.000000 0.000000 1.000000
vn 0.000000 0.000000 1.000000
vn 0.000000 0.000000 1.000000
vn 0.000000 0.000000 1.000000
vn 0.000000 0.000000 1.000000
vn 0.000000 0.000000 1.000000
vn 0.000000 0.000000 1.000000
vn 0.000000 0.000000 1.000000
vn 0.000000 0.000000 1.000000
vn 0.000000 0.000000 1.000000
vn 0.000000 0.000000 1.000000
vn 0.000000 0.000000 -1.000000
vn 0.000000 0.000000 -1.000000
vn 0.000000 0.000000 -1.000000
vn 0.000000 0.000000 -1.000000
vn 0.000000 0.000000 -1.000000
vn 0.000000 0.000000 -1.000000
vn 0.000000 0.000000 -1.000000
vn 0.000000 0.000000 -1.000000
vn 0.000000 0.000000 -1.000000
vn 0.000000 0.000000 -1.000000
vn 0.000000 0.000000 -1.000000
vn 0.000000 0.000000 -1.000000
vn 0.000000 0.000000 -1.000000
vn 0.000000 0.000000 -1.000000
vn 0.000000 0.000000 -1.000000
vn 0.000000 0.000000 -1.000000
vn 0.000000 0.000000 -1.000000
vn 0.000000 0.000000 -1.000000
vn 0.000000 0.000000 -1.000000
vn 0.000000 0.000000 -1.000000
vn 0.000000 0.000000 -1.000000
vn 0.000000 0.000000 -1.000000
vn 0.000000 0.000000 -1.000000
vn 0.000000 0.000000 -1.000000
vn 0.000000 0.000000 -1.000000
vn 0.000000 0.000000 -1.000000
vn 0.000000 0.000000 -1.000000
vn 0.000000 0.000000 -1.000000
vn 0.000000 0.000000 -1.000000
vn 0.000000 0.000000 -1.000000
vn 0.000000 0.000000 -1.000000
vn 0.000000 0.000000 -1.000000
vn 0.000000 0.000000 -1.000000
vn 0.000000 0.000000 -1.000000
vn 0.000000 0.000000 -1.000000
vn 0.000000 0.000000 -1.000000
vn 0.000000 0.000000 -1.000000
vn 0.000000 0.000000 -1.000000
vn 0.000000 0.000000 -1.000000
vn 0.000000 0.000000 -1.000000
vn 0.000000 0.000000 -1.000000
vn 0.000000 0.000000 -1.000000
vn 0.000000 0.000000 -1.000000
vn 0.000000 0.000000 -1.000000
vn 0.000000 0.000000 -1.000000
vn 0.000000 0.000000 -1.000000
vn 0.000000 0.000000 -1.000000
vn 0.000000 0.000000 -1.000000
vn 0.000000 0.000000 -1.000000
vn 0.000000 0.000000 -1.000000
vn 0.000000 0.000000 -1.000000
vn 0.000000 0.000000 -1.000000
s 1
g pCube450
usemtl lambert148SG
f 26/5/1 13/13/2 38/6/3 41/20/4
f 64/8/5 78/17/6 103/11/7 91/3/8
f 90/10/9 104/2/10 40/7/11 39/12/12
f 77/9/13 65/14/14 12/4/15 14/1/16
f 12/4/15 11/33/17 15/34/18 14/1/16
f 11/33/17 10/32/19 16/36/20 15/34/18
f 10/32/19 9/31/21 17/38/22 16/36/20
f 9/31/21 8/30/23 18/40/24 17/38/22
f 8/30/23 7/29/25 19/42/26 18/40/24
f 7/29/25 6/28/27 20/45/28 19/42/26
f 6/28/27 5/27/29 21/46/30 20/44/28
f 5/27/29 4/26/31 22/47/32 21/46/30
f 4/26/31 3/25/33 23/48/34 22/47/32
f 3/25/33 2/24/35 24/49/36 23/48/34
f 2/24/35 1/23/37 25/50/38 24/49/36
f 1/23/37 13/13/2 26/5/1 25/50/38
f 38/6/3 37/61/39 42/62/40 41/20/4
f 37/61/39 36/60/41 43/63/42 42/62/40
f 36/60/41 35/59/43 44/64/44 43/63/42
f 35/59/43 34/58/45 45/65/46 44/64/44
f 34/58/45 33/57/47 46/66/48 45/65/46
f 33/57/47 32/56/49 47/68/50 46/66/48
f 32/56/49 31/55/51 48/69/52 47/67/50
f 31/55/51 30/54/53 49/71/54 48/69/52
f 30/54/53 29/53/55 50/73/56 49/71/54
f 29/53/55 28/52/57 51/75/58 50/73/56
f 28/52/57 27/51/59 52/77/60 51/75/58
f 27/51/59 39/12/12 40/7/11 52/77/60
f 64/8/5 63/95/61 66/96/62 78/17/6
f 63/95/61 62/93/63 67/97/64 66/96/62
f 62/93/63 61/91/65 68/98/66 67/97/64
f 61/91/65 60/89/67 69/99/68 68/98/66
f 60/89/67 59/87/69 70/100/70 69/99/68
f 59/87/69 58/85/71 71/102/72 70/100/70
f 58/84/71 57/83/73 72/103/74 71/101/72
f 57/83/73 56/82/75 73/105/76 72/103/74
f 56/82/75 55/81/77 74/107/78 73/105/76
f 55/81/77 54/80/79 75/109/80 74/107/78
f 54/80/79 53/79/81 76/111/82 75/109/80
f 53/79/81 65/14/14 77/9/13 76/111/82
f 90/10/9 89/129/83 92/130/84 104/2/10
f 89/129/83 88/128/85 93/132/86 92/130/84
f 88/128/85 87/127/87 94/134/88 93/132/86
f 87/127/87 86/126/89 95/136/90 94/134/88
f 86/126/89 85/125/91 96/138/92 95/136/90
f 85/125/91 84/123/93 97/141/94 96/138/92
f 84/124/93 83/122/95 98/142/96 97/140/94
f 83/122/95 82/120/97 99/143/98 98/142/96
f 82/120/97 81/118/99 100/144/100 99/143/98
f 81/118/99 80/116/101 101/145/102 100/144/100
f 80/116/101 79/114/103 102/146/104 101/145/102
f 79/114/103 91/3/8 103/11/7 102/146/104
s off
f 79/113/105 80/115/106 81/117/107 82/119/108 83/121/109 84/123/110 85/125/111 86/126/112 87/127/113 88/128/114 89/129/115 90/10/116 39/12/117 27/51/118 28/52/119 29/53/120 30/54/121 31/55/122 32/56/123 33/57/124 34/58/125 35/59/126 36/60/127 37/61/128 38/6/129 13/13/130 1/23/131 2/24/132 3/25/133 4/26/134 5/27/135 6/28/136 7/29/137 8/30/138 9/31/139 10/32/140 11/33/141 12/4/142 65/14/143 53/79/144 54/80/145 55/81/146 56/82/147 57/83/148 58/84/149 59/86/150 60/88/151 61/90/152 62/92/153 63/94/154 64/15/155 91/16/156
f 92/131/157 93/133/158 94/135/159 95/137/160 96/139/161 97/140/162 98/142/163 99/143/164 100/144/165 101/145/166 102/146/167 103/11/168 78/17/169 66/96/170 67/97/171 68/98/172 69/99/173 70/100/174 71/102/175 72/104/176 73/106/177 74/108/178 75/110/179 76/112/180 77/18/181 14/19/182 15/35/183 16/37/184 17/39/185 18/41/186 19/43/187 20/44/188 21/46/189 22/47/190 23/48/191 24/49/192 25/50/193 26/5/194 41/20/195 42/62/196 43/63/197 44/64/198 45/65/199 46/66/200 47/68/201 48/70/202 49/72/203 50/74/204 51/76/205 52/78/206 40/21/207 104/22/208
